<svg data-name="Layer 1" xmlns="http://www.w3.org/2000/svg" viewBox="0 0 24 24">
  <path d="M15.04 22.379l.012.007a5.533 5.533 0 006.884-.755l.774-.774a1.846 1.846 0 000-2.61l-3.261-3.258a1.846 1.846 0 00-2.609 0h0a1.843 1.843 0 01-2.606.001l-.002-.001-5.218-5.22a1.846 1.846 0 010-2.608h0a1.843 1.843 0 00.002-2.607l-.002-.001-3.26-3.264a1.846 1.846 0 00-2.609 0l-.774.774a5.535 5.535 0 00-.756 6.884l.008.012a49.935 49.935 0 0013.417 13.42z" fill="none" stroke="#b0b0b0" stroke-linecap="round" stroke-linejoin="round" stroke-width="1.5"/>
</svg>