<svg xmlns="http://www.w3.org/2000/svg" viewBox="0 0 921.958 577.824" width="92" height="57">
     <g> <path fill="#e2e2e2" d="M396.673 570.1H11.204v-76.482l181.911-193.89q37.473-40.94 55.435-71.45 17.947-30.52 17.947-57.937 0-37.473-18.913-58.901-18.934-21.435-54.074-21.443-37.868 0-59.677 26.08-21.83 26.064-21.823 68.555H0q0-51.362 24.529-93.86 24.507-42.475 69.33-66.623Q138.66.015 195.44 0q86.904 0 134.988 41.715 48.093 41.73 48.078 117.803 0 41.73-21.618 84.98-21.633 43.266-74.157 100.807L154.881 480.103h241.792zM921.958 499.03q-31.286 37.474-88.447 58.126-57.175 20.668-126.695 20.668-72.994 0-128.041-31.857-55.026-31.879-84.966-92.513-29.948-60.642-30.716-142.522v-38.234q0-84.205 28.39-145.812t81.894-94.24Q626.867 0 698.713 0q100.024 0 156.416 47.712 56.408 47.697 66.83 138.85H809.172q-7.723-48.267-34.183-70.69-26.46-22.379-72.81-22.393-59.085 0-89.984 44.42-30.913 44.407-31.286 132.093v35.923q0 88.44 33.597 133.629 33.612 45.196 98.496 45.196 65.271 0 93.083-27.805V359.99H700.643v-85.361h221.315z"/>
    </g>
</svg>